<svg width="142" height="120" viewBox="0 0 142 120" fill="none" xmlns="http://www.w3.org/2000/svg">
<path d="M76.2156 40.3843C73.4624 43.4333 68.7611 43.6733 65.7118 40.9223C62.6615 38.1711 62.4171 33.4672 65.1649 30.4177C67.9168 27.3682 72.6214 27.1308 75.6707 29.8813C78.7201 32.6325 78.9634 37.3349 76.2156 40.3843Z" fill="url(#paint0_radial_6749_15671)"/>
<path d="M49.3971 7.11808C44.5313 10.7882 40.6429 15.6852 38.1914 21.3493C41.1331 22.0744 49.9408 24.9408 53.9818 35.8511C55.1972 35.455 57.8172 33.928 59.635 28.0329C62.0726 20.1401 66.6967 12.5487 72.6935 9.99962C66.7135 4.08336 58.8346 2.69028 49.3971 7.11808Z" fill="url(#paint1_linear_6749_15671)"/>
<path d="M97.9555 12.8262C97.9561 12.8255 97.9566 12.8248 97.9572 12.8242C91.4646 4.99011 81.6609 0 70.6918 0C62.6984 0 55.3239 2.64997 49.3984 7.11928C62.5 0.97223 72.5975 6.04319 78.7809 18.8607C88.6303 20.6272 95.3195 15.7264 97.9555 12.8262Z" fill="url(#paint2_linear_6749_15671)"/>
<path d="M56.8484 67.9809C62.4594 70.3601 68.6442 71.2795 74.7748 70.5706C73.9318 67.6602 72.0102 58.5986 79.4375 49.6437C78.4869 48.7891 75.8546 47.2834 69.8407 48.6566C61.7871 50.4918 52.9013 50.2825 47.6955 46.3633C45.5623 54.5006 48.2954 62.0211 56.8484 67.9809Z" fill="url(#paint3_linear_6749_15671)"/>
<path d="M37.5121 23.0727C37.5112 23.0725 37.5104 23.0724 37.5095 23.0723C33.9719 32.6125 34.5525 43.5984 40.0371 53.0988C44.0338 60.0219 50.0158 65.0839 56.8487 67.9812C44.9748 59.7075 44.3173 48.4267 52.3249 36.6625C48.93 27.2487 41.3415 23.9056 37.5121 23.0727Z" fill="url(#paint4_linear_6749_15671)"/>
<path d="M105.827 31.0962C105.081 25.0469 102.785 19.2306 99.106 14.2754C97.0071 16.4607 90.1211 22.6558 78.653 20.7005C78.3882 21.9511 78.4005 24.9838 82.5965 29.5058C88.2125 35.5633 92.4742 43.364 91.6832 49.8323C99.7964 47.6112 104.942 41.4839 105.827 31.0962Z" fill="url(#paint5_linear_6749_15671)"/>
<path d="M76.6061 70.2974C76.6065 70.2982 76.6068 70.299 76.6071 70.2998C86.6373 68.5936 95.8604 62.5978 101.345 53.0974C105.342 46.1743 106.734 38.4623 105.827 31.0957C104.599 45.5164 95.159 51.7263 80.9679 50.673C74.5133 58.3203 75.4127 66.5642 76.6061 70.2974Z" fill="url(#paint6_linear_6749_15671)"/>
<path d="M106.109 104.202V103.494L35.2702 103.494V104.202L106.109 104.202Z" fill="#3C3C3B"/>
<path d="M7.02603 93.5397H2.43926L1.39599 96.4084H0L4.096 85.6699H5.47662L9.49578 96.4084H8.05393L7.02603 93.5397ZM2.88418 92.2818H6.58111L4.78631 87.2347H4.72484L2.88418 92.2818Z" fill="#3C3C3B"/>
<path d="M14.9557 91.5607H13.9434V96.4084H12.5625V85.6699H13.9434V90.5483H14.8483L18.6375 85.6699H20.4018L16.275 90.6097C17.4564 90.8091 17.7937 92.4658 20.5703 96.4084H18.8216C16.0143 92.3124 16.2597 91.5607 14.9557 91.5607Z" fill="#3C3C3B"/>
<path d="M26.0924 91.5607H25.0798V96.4084H23.6992V85.6699H25.0798V90.5483H25.985L29.7742 85.6699H31.5383L27.4115 90.6097C28.5929 90.8091 28.9304 92.4658 31.7071 96.4084H29.9581C27.1508 92.3124 27.3964 91.5607 26.0924 91.5607Z" fill="#3C3C3B"/>
<path d="M36.1081 95.5954C36.6603 95.3499 37.0745 94.9049 37.4121 94.1379L37.5194 93.8925L33.5156 85.6699H35.065L38.2405 92.4045L40.787 85.6699H42.183L38.67 94.3681C38.3478 95.1811 37.6728 96.209 36.8445 96.5618L36.1081 95.5954Z" fill="#3C3C3B"/>
<path d="M48.3797 91.4678H46.5391V96.4075H45.1582V85.6691H46.5391V90.2099H48.4105C48.6866 87.2644 50.5429 85.5156 53.0126 85.5156C56.0348 85.5156 57.8143 87.4179 57.8143 91.0383C57.8143 94.6433 55.9122 96.5609 53.0587 96.5609C50.3128 96.5609 48.5178 94.7508 48.3797 91.4678ZM56.3417 91.0383C56.3417 87.8321 54.9762 86.8043 53.0126 86.8043C51.2485 86.8043 49.7606 88.1389 49.7606 91.0383C49.7606 93.9684 51.1412 95.2723 53.1814 95.2723C55.0991 95.2723 56.3417 93.9376 56.3417 91.0383Z" fill="#3C3C3B"/>
<path d="M74.9479 96.4084H73.567V91.4686H68.1365V96.4084H66.7559V85.6699H68.1365V90.2107H73.567V85.6699H74.9479V96.4084Z" fill="#3C3C3B"/>
<path d="M80.5146 95.5954C81.0668 95.3499 81.481 94.9049 81.8186 94.1379L81.9259 93.8925L77.9219 85.6699H79.4713L82.647 92.4045L85.1933 85.6699H86.5895L83.0765 94.3681C82.7543 95.1811 82.0793 96.209 81.251 96.5618L80.5146 95.5954Z" fill="#3C3C3B"/>
<path d="M91.9576 91.5607H90.9451V96.4084H89.5645V85.6699H90.9451V90.5483H91.8503L95.6394 85.6699H97.4035L93.277 90.6097C94.4581 90.8091 94.7957 92.4658 97.5723 96.4084H95.8236C93.0162 92.3124 93.2616 91.5607 91.9576 91.5607Z" fill="#3C3C3B"/>
<path d="M108.707 96.4084H107.327V86.9586H103.645C103.599 93.1101 103.338 96.5311 100.699 96.5311C100.408 96.5311 100.285 96.5005 100.086 96.4391V95.1045C100.254 95.1505 100.362 95.1505 100.531 95.1505C101.65 95.1505 102.172 93.7237 102.249 86.9125L102.264 85.6699H108.707V96.4084Z" fill="#3C3C3B"/>
<path d="M119 96.4084H113.002V85.6699H119V86.9586H114.383V90.2107H118.601V91.4686H114.383V95.1197H119V96.4084Z" fill="#3C3C3B"/>
<path d="M128.71 93.5397H124.123L123.08 96.4084H121.684L125.78 85.6699H127.16L131.179 96.4084H129.737L128.71 93.5397ZM124.568 92.2818H128.265L126.47 87.2347H126.408L124.568 92.2818Z" fill="#3C3C3B"/>
<path d="M135.627 96.4084H134.246V85.6699H137.406C139.845 85.6699 141.379 86.6825 141.379 89.0141C141.379 91.2386 139.845 92.4504 137.284 92.4504H135.627V96.4084ZM135.627 91.1619H137.284C138.986 91.1619 139.907 90.4716 139.907 89.0449C139.907 87.5722 138.986 86.9586 137.284 86.9586H135.627V91.1619Z" fill="#3C3C3B"/>
<path d="M40.6406 119.876H39.5352V111.277H42.0656C44.019 111.277 45.2474 112.088 45.2474 113.955C45.2474 115.736 44.019 116.707 41.9676 116.707H40.6406V119.876ZM40.6406 115.675H41.9676C43.3311 115.675 44.068 115.122 44.068 113.98C44.068 112.801 43.3311 112.309 41.9676 112.309H40.6406V115.675Z" fill="#2A5596"/>
<path d="M47.5801 115.576C47.5801 112.825 49.1646 111.154 51.4373 111.154C53.9924 111.154 55.3681 112.972 55.3681 115.576C55.3681 118.5 53.7221 119.999 51.4741 119.999C49.091 119.999 47.5801 118.304 47.5801 115.576ZM54.189 115.576C54.189 113.218 53.1323 112.186 51.4373 112.186C49.9262 112.186 48.7592 113.279 48.7592 115.576C48.7592 117.837 49.8896 118.967 51.5846 118.967C53.1938 118.967 54.189 117.8 54.189 115.576Z" fill="#2A5596"/>
<path d="M64.1137 119.642C63.6471 119.864 62.9838 119.999 62.2345 119.999C59.5564 119.999 57.9473 118.328 57.9473 115.687C57.9473 112.763 59.5933 111.154 62.1608 111.154C63.1434 111.154 63.7207 111.326 64.1261 111.486L63.9171 112.456C63.3768 112.26 62.8116 112.186 62.2711 112.186C60.2321 112.186 59.1264 113.365 59.1264 115.576C59.1264 117.714 60.3673 118.967 62.3818 118.967C62.9224 118.967 63.4995 118.869 63.9295 118.66L64.1137 119.642Z" fill="#2A5596"/>
<path d="M71.8388 117.579H68.166L67.3308 119.876H66.2129L69.4927 111.277H70.5982L73.8165 119.876H72.662L71.8388 117.579ZM68.5224 116.572H71.4827L70.0454 112.53H69.9964L68.5224 116.572Z" fill="#2A5596"/>
<path d="M78.3244 119.876H77.2187V112.309H74.6758V111.277H80.8671V112.309H78.3244V119.876Z" fill="#2A5596"/>
<path d="M82.709 115.576C82.709 112.825 84.2935 111.154 86.5659 111.154C89.1211 111.154 90.497 112.972 90.497 115.576C90.497 118.5 88.8508 119.999 86.603 119.999C84.2199 119.999 82.709 118.304 82.709 115.576ZM89.3177 115.576C89.3177 113.218 88.2612 112.186 86.5659 112.186C85.0551 112.186 83.8881 113.279 83.8881 115.576C83.8881 117.837 85.0182 118.967 86.7133 118.967C88.3227 118.967 89.3177 117.8 89.3177 115.576Z" fill="#2A5596"/>
<path d="M101.847 119.876H100.741L100.213 113.157L98.0388 119.876H96.8841L94.7222 113.181L94.1816 119.876H93.0762L93.8131 111.277H95.1642L97.4859 118.672L99.7585 111.277H101.11L101.847 119.876Z" fill="#2A5596"/>
<defs>
<radialGradient id="paint0_radial_6749_15671" cx="0" cy="0" r="1" gradientUnits="userSpaceOnUse" gradientTransform="translate(68.2996 31.2622) scale(10.4673 10.4673)">
<stop stop-color="#6095CD"/>
<stop offset="1" stop-color="#202562"/>
</radialGradient>
<linearGradient id="paint1_linear_6749_15671" x1="45.586" y1="30.3988" x2="63.188" y2="3.2941" gradientUnits="userSpaceOnUse">
<stop stop-color="#6095CD"/>
<stop offset="1" stop-color="#202562"/>
</linearGradient>
<linearGradient id="paint2_linear_6749_15671" x1="52.6134" y1="-0.837827" x2="96.3392" y2="16.8286" gradientUnits="userSpaceOnUse">
<stop stop-color="#6095CD"/>
<stop offset="1" stop-color="#202562"/>
</linearGradient>
<linearGradient id="paint3_linear_6749_15671" x1="78.9136" y1="59.6405" x2="46.6412" y2="57.9492" gradientUnits="userSpaceOnUse">
<stop stop-color="#6095CD"/>
<stop offset="1" stop-color="#202562"/>
</linearGradient>
<linearGradient id="paint4_linear_6749_15671" x1="48.3505" y1="69.1756" x2="41.7866" y2="22.4712" gradientUnits="userSpaceOnUse">
<stop stop-color="#6095CD"/>
<stop offset="1" stop-color="#202562"/>
</linearGradient>
<linearGradient id="paint5_linear_6749_15671" x1="87.5712" y1="16.1563" x2="102.244" y2="44.9525" gradientUnits="userSpaceOnUse">
<stop stop-color="#6095CD"/>
<stop offset="1" stop-color="#202562"/>
</linearGradient>
<linearGradient id="paint6_linear_6749_15671" x1="111.111" y1="37.8591" x2="73.9468" y2="66.8948" gradientUnits="userSpaceOnUse">
<stop stop-color="#6095CD"/>
<stop offset="1" stop-color="#202562"/>
</linearGradient>
</defs>
</svg>
