<?xml version="1.0" standalone="no"?>
<!DOCTYPE svg PUBLIC "-//W3C//DTD SVG 20010904//EN"
 "http://www.w3.org/TR/2001/REC-SVG-20010904/DTD/svg10.dtd">
<svg version="1.0" xmlns="http://www.w3.org/2000/svg"
 width="920.000000pt" height="920.000000pt" viewBox="0 0 920.000000 920.000000"
 preserveAspectRatio="xMidYMid meet">

<g transform="translate(0.000000,920.000000) scale(0.100000,-0.100000)"
fill="#000000" stroke="none">
<path d="M4744 7323 c83 -292 164 -694 200 -998 60 -505 46 -1137 -35 -1613
l-11 -63 -29 83 c-41 120 -156 346 -238 469 -358 537 -931 887 -1594 974 -210
27 -524 17 -737 -25 -495 -96 -982 -382 -1294 -760 -259 -314 -408 -634 -488
-1050 -22 -115 -22 -120 -25 -1497 l-4 -1383 4229 0 c2326 0 4231 2 4234 5 10
10 -72 455 -137 750 -35 160 -93 405 -129 545 -261 1030 -304 1210 -371 1561
-62 321 -112 720 -130 1024 -9 149 -9 607 -1 725 30 413 86 784 175 1163 12
48 21 92 21 97 0 7 -662 10 -1821 10 -1729 0 -1820 -1 -1815 -17z m3286 -277
c0 -8 -6 -45 -14 -83 -21 -100 -63 -378 -80 -533 -50 -450 -51 -984 -1 -1460
55 -519 135 -910 395 -1945 154 -611 225 -912 270 -1140 12 -60 24 -118 26
-127 5 -17 -86 -18 -1810 -18 l-1816 0 0 1024 0 1025 40 163 c228 922 279
1751 159 2583 -17 122 -77 438 -95 503 l-6 22 1466 0 c1267 0 1466 -2 1466
-14z m-5040 -1147 c443 -55 834 -239 1143 -538 269 -260 445 -567 533 -926 54
-221 54 -231 54 -1511 l0 -1184 -1975 0 -1975 0 0 1183 c0 1258 1 1277 50
1483 140 596 545 1083 1108 1334 173 78 413 143 602 163 79 9 381 6 460 -4z"/>
<path d="M2581 5249 c-168 -19 -354 -65 -483 -121 -36 -15 -47 -25 -43 -37 5
-17 494 -1023 500 -1029 2 -2 20 8 42 22 62 41 122 58 203 58 81 0 141 -17
203 -58 22 -14 40 -24 42 -22 4 3 505 1040 505 1044 0 1 -34 16 -75 33 -90 38
-227 75 -355 96 -115 19 -423 27 -539 14z"/>
<path d="M2755 4011 c-48 -12 -90 -38 -122 -75 -88 -99 -65 -258 48 -333 48
-32 136 -42 194 -23 154 51 198 260 78 371 -55 52 -135 76 -198 60z"/>
<path d="M1280 3876 c0 -71 31 -264 59 -371 92 -347 297 -698 535 -915 43 -40
49 -43 60 -28 7 9 169 210 362 448 192 237 350 434 351 438 2 4 -18 20 -43 36
-59 37 -117 111 -144 183 -16 44 -21 76 -19 140 1 46 0 85 -2 87 -2 2 -264 7
-581 11 l-578 7 0 -36z"/>
<path d="M3778 3905 c-2 -2 -145 -5 -317 -6 l-313 -1 7 -58 c8 -67 -8 -156
-37 -213 -25 -50 -90 -121 -137 -149 -20 -12 -37 -22 -39 -24 -3 -1 695 -861
729 -898 4 -5 37 19 74 55 227 217 423 562 511 899 29 109 54 271 54 348 l0
53 -264 -1 c-145 -1 -266 -3 -268 -5z"/>
</g>
</svg>
